<?xml version="1.0" encoding="UTF-8" standalone="no"?>
<!-- Created with Inkscape (http://www.inkscape.org/) -->

<svg
   xmlns:osb="http://www.openswatchbook.org/uri/2009/osb"
   xmlns:dc="http://purl.org/dc/elements/1.1/"
   xmlns:cc="http://creativecommons.org/ns#"
   xmlns:rdf="http://www.w3.org/1999/02/22-rdf-syntax-ns#"
   xmlns:svg="http://www.w3.org/2000/svg"
   xmlns="http://www.w3.org/2000/svg"
   xmlns:sodipodi="http://sodipodi.sourceforge.net/DTD/sodipodi-0.dtd"
   xmlns:inkscape="http://www.inkscape.org/namespaces/inkscape"
   width="744.09448819"
   height="1052.3622047"
   id="svg2"
   version="1.1"
   inkscape:version="0.48.4 r9939"
   sodipodi:docname="ExAMM_logo.svg"
   inkscape:export-filename="/media/user/TOSHIBA EXT/Dottorato_Birmingham/SUNDIAL/Framework_MATLAB2019/ExAMM_logo.png"
   inkscape:export-xdpi="300"
   inkscape:export-ydpi="300">
  <defs
     id="defs4">
    <linearGradient
       id="linearGradient4175">
      <stop
         style="stop-color:#000000;stop-opacity:1;"
         offset="0"
         id="stop4177" />
      <stop
         style="stop-color:#000000;stop-opacity:0;"
         offset="1"
         id="stop4179" />
    </linearGradient>
    <inkscape:path-effect
       effect="spiro"
       id="path-effect3993"
       is_visible="true" />
    <linearGradient
       id="linearGradient3773"
       osb:paint="gradient">
      <stop
         style="stop-color:#c87137;stop-opacity:1;"
         offset="0"
         id="stop3775" />
      <stop
         style="stop-color:#c87137;stop-opacity:0;"
         offset="1"
         id="stop3777" />
    </linearGradient>
    <filter
       inkscape:collect="always"
       id="filter4195"
       x="-0.14031836"
       width="1.2806367"
       y="-0.10328989"
       height="1.2065798">
      <feGaussianBlur
         inkscape:collect="always"
         stdDeviation="17.528877"
         id="feGaussianBlur4197" />
    </filter>
    <pattern
       patternUnits="userSpaceOnUse"
       width="378.08851"
       height="521.24589"
       patternTransform="translate(303.80918,205.54773)"
       id="pattern4199">
      <rect
         transform="matrix(0.63156303,-0.41925935,0.30679516,0.79510266,-88.322399,-103.47411)"
         y="345.2554"
         x="22.627417"
         height="407.29352"
         width="299.81326"
         id="rect4173"
         style="fill:#4d4d4d;fill-opacity:1;stroke:none;filter:url(#filter4195)" />
    </pattern>
    <filter
       inkscape:collect="always"
       id="filter4954">
      <feGaussianBlur
         inkscape:collect="always"
         stdDeviation="20.388905"
         id="feGaussianBlur4956" />
    </filter>
  </defs>
  <sodipodi:namedview
     id="base"
     pagecolor="#ffffff"
     bordercolor="#666666"
     borderopacity="1.0"
     inkscape:pageopacity="0.0"
     inkscape:pageshadow="2"
     inkscape:zoom="0.35355339"
     inkscape:cx="-58.804281"
     inkscape:cy="2689.522"
     inkscape:document-units="px"
     inkscape:current-layer="layer1"
     showgrid="false"
     inkscape:window-width="1867"
     inkscape:window-height="1056"
     inkscape:window-x="53"
     inkscape:window-y="24"
     inkscape:window-maximized="1" />
  <metadata
     id="metadata7">
    <rdf:RDF>
      <cc:Work
         rdf:about="">
        <dc:format>image/svg+xml</dc:format>
        <dc:type
           rdf:resource="http://purl.org/dc/dcmitype/StillImage" />
        <dc:title></dc:title>
      </cc:Work>
    </rdf:RDF>
  </metadata>
  <g
     inkscape:label="Livello 1"
     inkscape:groupmode="layer"
     id="layer1"
     style="display:inline">
    <g
       id="g4946"
       style="fill:none">
      <g
         id="g4950"
         style="fill:#b3b3b3;filter:url(#filter4954)" />
    </g>
    <g
       id="g3371"
       inkscape:export-filename="/media/user/TOSHIBA EXT/Dottorato_Birmingham/SUNDIAL/Framework_MATLAB2019/ExAMM_logo2.png"
       inkscape:export-xdpi="300"
       inkscape:export-ydpi="300">
      <rect
         y="-1507.3644"
         x="-59.396961"
         height="732.56171"
         width="715.59241"
         id="rect3367"
         style="fill:#ffffff;fill-opacity:1;stroke:#ffffff;stroke-width:7.5;stroke-miterlimit:4;stroke-dasharray:none" />
      <g
         transform="matrix(-0.96513824,0.26174067,0.26174067,0.96513824,497.40538,-1659.223)"
         style="opacity:0.90181813;fill:#b3b3b3;filter:url(#filter4954)"
         id="g4958">
        <path
           style="fill:#b3b3b3;stroke:#000000;stroke-width:1px;stroke-linecap:butt;stroke-linejoin:miter;stroke-opacity:1"
           d="M -43.266097,316.92693 C 379.81912,152.2333 9.0966023,567.01398 202.98566,645.71702 c 86.40883,37.69085 216.57498,70.10155 216.57498,70.10155"
           id="path4926"
           inkscape:connector-curvature="0"
           sodipodi:nodetypes="ccc" />
        <path
           style="fill:#b3b3b3;stroke:#000000;stroke-width:1px;stroke-linecap:butt;stroke-linejoin:miter;stroke-opacity:1"
           d="m -24.218408,339.55435 c 0,0 94.891042,-69.68643 212.662358,-57.93856 298.93137,29.81885 -46.69282,354.58302 179.18653,218.57903 C 600.01157,386.44372 658.66996,533.3458 658.66996,533.3458 417.9001,714.36514 419.35353,715.81857 419.35353,715.81857"
           id="path4926-9"
           inkscape:connector-curvature="0"
           sodipodi:nodetypes="csccc" />
      </g>
      <g
         transform="matrix(0.96513824,-0.26174067,0.26174067,0.96513824,313.63317,43.469445)"
         id="g3251">
        <rect
           style="fill:none;stroke:none"
           width="378.0885"
           height="521.24591"
           x="-319.22028"
           y="-1389.6852"
           id="rect4202"
           transform="scale(-1,1)" />
        <rect
           style="fill:#c87137;fill-opacity:1;stroke:none"
           id="rect2985"
           width="293.76755"
           height="413.76288"
           x="102.76927"
           y="-1277.4629"
           transform="matrix(-0.79108369,-0.61170793,-0.32744409,0.94487056,0,0)" />
        <path
           sodipodi:type="star"
           style="fill:#ffffff;fill-opacity:1;stroke:none"
           id="path3821"
           sodipodi:sides="3"
           sodipodi:cx="296"
           sodipodi:cy="293.36218"
           sodipodi:r1="97.005157"
           sodipodi:r2="48.502579"
           sodipodi:arg1="1.5811052"
           sodipodi:arg2="2.6283028"
           inkscape:flatsided="true"
           inkscape:rounded="0"
           inkscape:randomized="0"
           d="M 295,390.36219 212.49553,243.99616 380.50446,245.7282 z"
           inkscape:transform-center-x="-0.083409323"
           inkscape:transform-center-y="14.96572"
           transform="matrix(-0.63127277,-0.49440642,-0.20503298,0.57174872,460.64296,-1358.5)" />
        <path
           style="fill:none;stroke:#000000;stroke-width:6.48176527;stroke-linecap:butt;stroke-linejoin:miter;stroke-miterlimit:4;stroke-opacity:1;stroke-dasharray:none"
           d="m 271.25071,-1321.0119 c 65.74107,51.0431 65.74107,51.0431 65.74107,51.0431 -135.01327,389.53394 -135.81054,390.77002 -135.81054,390.77002"
           id="path3823"
           inkscape:connector-curvature="0"
           sodipodi:nodetypes="ccc" />
        <path
           style="fill:none;stroke:#000000;stroke-width:6.48176527;stroke-linecap:butt;stroke-linejoin:miter;stroke-miterlimit:4;stroke-opacity:1;stroke-dasharray:none"
           d="m 171.47832,-1398.0471 c -65.8551,-50.714 -65.8551,-50.714 -65.8551,-50.714 -134.980736,389.559 -135.196124,391.2451 -135.196124,391.2451"
           id="path3823-7"
           inkscape:connector-curvature="0"
           sodipodi:nodetypes="ccc" />
        <path
           style="fill:none;stroke:#000000;stroke-width:6.48176527;stroke-linecap:butt;stroke-linejoin:miter;stroke-miterlimit:4;stroke-opacity:1;stroke-dasharray:none"
           d="m 169.96591,-1400.8592 c 23.86194,125.884 23.89544,125.5475 23.89544,125.5475"
           id="path3845"
           inkscape:connector-curvature="0"
           sodipodi:nodetypes="cc" />
        <path
           style="fill:none;stroke:#000000;stroke-width:6.48176527;stroke-linecap:butt;stroke-linejoin:miter;stroke-miterlimit:4;stroke-opacity:1;stroke-dasharray:none"
           d="m 273.69059,-1320.776 c -82.3433,43.5393 -83.11411,43.1455 -83.11411,43.1455"
           id="path3847"
           inkscape:connector-curvature="0"
           sodipodi:nodetypes="cc" />
        <rect
           style="fill:#ffffff;fill-opacity:1;stroke:#000000;stroke-width:1.77545691;stroke-miterlimit:4;stroke-dasharray:none"
           id="rect3849"
           width="222.93062"
           height="262.54153"
           x="136.04073"
           y="-1169.5729"
           transform="matrix(-0.79108369,-0.61170793,-0.32744409,0.94487056,0,0)" />
        <path
           style="fill:none;stroke:#000000;stroke-width:4.92614174;stroke-linecap:butt;stroke-linejoin:miter;stroke-miterlimit:4;stroke-opacity:1;stroke-dasharray:none"
           d="m 231.72904,-1313.8267 c -41.1337,-31.8068 -41.1337,-31.8068 -41.1337,-31.8068"
           id="path3878"
           inkscape:connector-curvature="0" />
        <path
           style="fill:none;stroke:#000000;stroke-width:4.92614174;stroke-linecap:butt;stroke-linejoin:miter;stroke-miterlimit:4;stroke-opacity:1;stroke-dasharray:none"
           d="m 232.43109,-1297.8407 c 4.02614,-114.0363 -50.84945,-39.0668 -50.84945,-39.0668"
           id="path3882"
           inkscape:connector-curvature="0" />
        <g
           id="g3145"
           transform="matrix(0.99999862,-0.00166373,-0.00166373,-0.99999862,-12.83907,-2265.8506)">
          <rect
             transform="matrix(0.79108369,-0.61170793,0.32744409,0.94487056,0,0)"
             y="-947.05334"
             x="454.48016"
             height="58.497334"
             width="50.923241"
             id="rect3851"
             style="fill:#ffffff;fill-opacity:1;stroke:#000000;stroke-width:2.66318536;stroke-miterlimit:4;stroke-dasharray:none" />
          <rect
             transform="matrix(0.79108369,-0.61170793,0.32744409,0.94487056,0,0)"
             y="-868.83582"
             x="454.47388"
             height="58.497334"
             width="50.923241"
             id="rect3851-6"
             style="fill:#ffffff;fill-opacity:1;stroke:#000000;stroke-width:2.66318536;stroke-miterlimit:4;stroke-dasharray:none" />
          <rect
             transform="matrix(0.79108369,-0.61170793,0.32744409,0.94487056,0,0)"
             y="-790.62097"
             x="454.46698"
             height="58.497334"
             width="50.923241"
             id="rect3851-0"
             style="fill:#ffffff;fill-opacity:1;stroke:#000000;stroke-width:2.66318536;stroke-miterlimit:4;stroke-dasharray:none" />
          <path
             sodipodi:nodetypes="cccc"
             inkscape:connector-curvature="0"
             id="path3943"
             d="m 115.97711,-1185.8803 c 34.81703,-34.4444 34.89615,-34.5056 34.89615,-34.5056 l -0.0403,-0.1163 39.52888,-21.7164"
             style="fill:none;stroke:#000000;stroke-width:1.64204717;stroke-linecap:butt;stroke-linejoin:miter;stroke-miterlimit:4;stroke-opacity:1;stroke-dasharray:none" />
          <path
             transform="matrix(0.88700659,-0.68588061,0.54137133,1.5621776,-186.25302,-2098.7871)"
             d="m 76,578.86218 c 0,3.03757 -2.910149,5.5 -6.5,5.5 -3.589851,0 -6.5,-2.46243 -6.5,-5.5 0,-3.03756 2.910149,-5.5 6.5,-5.5 3.589851,0 6.5,2.46244 6.5,5.5 z"
             sodipodi:ry="5.5"
             sodipodi:rx="6.5"
             sodipodi:cy="578.86218"
             sodipodi:cx="69.5"
             id="path3916-0"
             style="fill:#0000ff;fill-opacity:1;stroke:#000000;stroke-width:1.45657229;stroke-miterlimit:4;stroke-dasharray:none"
             sodipodi:type="arc" />
          <path
             transform="matrix(0.88700659,-0.68588061,0.54137133,1.5621776,-223.63353,-2076.372)"
             d="m 76,578.86218 c 0,3.03757 -2.910149,5.5 -6.5,5.5 -3.589851,0 -6.5,-2.46243 -6.5,-5.5 0,-3.03756 2.910149,-5.5 6.5,-5.5 3.589851,0 6.5,2.46244 6.5,5.5 z"
             sodipodi:ry="5.5"
             sodipodi:rx="6.5"
             sodipodi:cy="578.86218"
             sodipodi:cx="69.5"
             id="path3916-1"
             style="fill:#0000ff;fill-opacity:1;stroke:#000000;stroke-width:1.45657229;stroke-miterlimit:4;stroke-dasharray:none"
             sodipodi:type="arc" />
          <path
             transform="matrix(0.88700659,-0.68588061,0.54137133,1.5621776,-259.28363,-2041.726)"
             d="m 76,578.86218 c 0,3.03757 -2.910149,5.5 -6.5,5.5 -3.589851,0 -6.5,-2.46243 -6.5,-5.5 0,-3.03756 2.910149,-5.5 6.5,-5.5 3.589851,0 6.5,2.46244 6.5,5.5 z"
             sodipodi:ry="5.5"
             sodipodi:rx="6.5"
             sodipodi:cy="578.86218"
             sodipodi:cx="69.5"
             id="path3916"
             style="fill:#0000ff;fill-opacity:1;stroke:#000000;stroke-width:1.45657229;stroke-miterlimit:4;stroke-dasharray:none"
             sodipodi:type="arc" />
          <path
             sodipodi:nodetypes="cccc"
             inkscape:connector-curvature="0"
             id="path3943-2"
             d="m 164.59702,-1037.921 c 38.9287,-22.5797 39.00782,-22.6409 39.00782,-22.6409 l 0.0403,0.1163 34.69161,-35.6748"
             style="fill:none;stroke:#000000;stroke-width:1.64204717;stroke-linecap:butt;stroke-linejoin:miter;stroke-miterlimit:4;stroke-opacity:1;stroke-dasharray:none" />
          <path
             transform="matrix(0.88700659,-0.68588061,-0.54137133,-1.5621776,489.12564,-142.2566)"
             d="m 76,578.86218 c 0,3.03757 -2.910149,5.5 -6.5,5.5 -3.589851,0 -6.5,-2.46243 -6.5,-5.5 0,-3.03756 2.910149,-5.5 6.5,-5.5 3.589851,0 6.5,2.46244 6.5,5.5 z"
             sodipodi:ry="5.5"
             sodipodi:rx="6.5"
             sodipodi:cy="578.86218"
             sodipodi:cx="69.5"
             id="path3916-0-5"
             style="fill:#0000ff;fill-opacity:1;stroke:#000000;stroke-width:1.45657229;stroke-miterlimit:4;stroke-dasharray:none"
             sodipodi:type="arc" />
          <path
             transform="matrix(0.88700659,-0.68588061,-0.54137133,-1.5621776,455.29247,-109.6054)"
             d="m 76,578.86218 c 0,3.03757 -2.910149,5.5 -6.5,5.5 -3.589851,0 -6.5,-2.46243 -6.5,-5.5 0,-3.03756 2.910149,-5.5 6.5,-5.5 3.589851,0 6.5,2.46244 6.5,5.5 z"
             sodipodi:ry="5.5"
             sodipodi:rx="6.5"
             sodipodi:cy="578.86218"
             sodipodi:cx="69.5"
             id="path3916-1-1"
             style="fill:#0000ff;fill-opacity:1;stroke:#000000;stroke-width:1.45657229;stroke-miterlimit:4;stroke-dasharray:none"
             sodipodi:type="arc" />
          <path
             transform="matrix(0.88700659,-0.68588061,-0.54137133,-1.5621776,415.77256,-86.126096)"
             d="m 76,578.86218 c 0,3.03757 -2.910149,5.5 -6.5,5.5 -3.589851,0 -6.5,-2.46243 -6.5,-5.5 0,-3.03756 2.910149,-5.5 6.5,-5.5 3.589851,0 6.5,2.46244 6.5,5.5 z"
             sodipodi:ry="5.5"
             sodipodi:rx="6.5"
             sodipodi:cy="578.86218"
             sodipodi:cx="69.5"
             id="path3916-9"
             style="fill:#0000ff;fill-opacity:1;stroke:#000000;stroke-width:1.45657229;stroke-miterlimit:4;stroke-dasharray:none"
             sodipodi:type="arc" />
          <path
             sodipodi:nodetypes="cc"
             inkscape:connector-curvature="0"
             id="path3985"
             d="m 141.38622,-1109.9544 c 45.76999,-35.6923 45.71403,-35.6491 45.71403,-35.6491"
             style="fill:none;stroke:#000000;stroke-width:1.7284708;stroke-linecap:butt;stroke-linejoin:miter;stroke-miterlimit:4;stroke-opacity:1;stroke-dasharray:none" />
          <path
             inkscape:transform-center-y="-3.0000334"
             inkscape:transform-center-x="-11.165429"
             transform="matrix(0.88700659,-0.68588061,0.54137133,1.5621776,-188.35014,-2002.5169)"
             d="m 76,578.86218 c 0,3.03757 -2.910149,5.5 -6.5,5.5 -3.589851,0 -6.5,-2.46243 -6.5,-5.5 0,-3.03756 2.910149,-5.5 6.5,-5.5 3.589851,0 6.5,2.46244 6.5,5.5 z"
             sodipodi:ry="5.5"
             sodipodi:rx="6.5"
             sodipodi:cy="578.86218"
             sodipodi:cx="69.5"
             id="path3916-1-3"
             style="fill:#0000ff;fill-opacity:1;stroke:#000000;stroke-width:1.45657229;stroke-miterlimit:4;stroke-dasharray:none"
             sodipodi:type="arc" />
          <path
             inkscape:transform-center-y="2.9999566"
             inkscape:transform-center-x="-70.540429"
             transform="matrix(0.88700659,-0.68588061,0.54137133,1.5621776,-233.71248,-1966.8268)"
             d="m 76,578.86218 c 0,3.03757 -2.910149,5.5 -6.5,5.5 -3.589851,0 -6.5,-2.46243 -6.5,-5.5 0,-3.03756 2.910149,-5.5 6.5,-5.5 3.589851,0 6.5,2.46244 6.5,5.5 z"
             sodipodi:ry="5.5"
             sodipodi:rx="6.5"
             sodipodi:cy="578.86218"
             sodipodi:cx="69.5"
             id="path3916-12"
             style="fill:#0000ff;fill-opacity:1;stroke:#000000;stroke-width:1.45657229;stroke-miterlimit:4;stroke-dasharray:none"
             sodipodi:type="arc" />
          <g
             transform="matrix(0.15583033,-0.12049628,0.0638362,0.18420532,240.79083,-1195.7827)"
             id="g4090">
            <path
               style="fill:#00ff00;stroke:#000000;stroke-width:7.5;stroke-miterlimit:4;stroke-dasharray:none"
               id="path4021"
               d="m -1082.4152,-108.19922 c 1.7029,-4.85561 2.7017,-9.91412 3.9505,-14.89439 0.8809,-4.39623 2.606,-8.5483 3.6775,-12.89332 0.8228,-3.07382 1.9257,-6.06788 2.7078,-9.14929 1.2813,-2.9567 1.8113,-6.14121 2.8807,-9.16364 1.1631,-4.04479 3.3966,-7.6434 5.7107,-11.11871 2.3769,-3.4351 5.2287,-6.49512 8.1094,-9.50568 18.021,-19.98275 58.1963,-35.67349 71.52369,-43.25367 2.97998,-0.89536 5.62824,-2.52398 8.52179,-3.61258 0.98558,-0.48498 2.11007,-0.29458 3.13231,-0.58247 0.4633,-0.13048 0.86213,-0.43314 1.31439,-0.59787 1.45375,-0.52949 2.98176,-0.67522 4.507,-0.82901 2.6927,-1.37969 5.7621,-1.43486 8.72139,-1.50619 3.05613,0.0591 6.13288,-0.31016 9.07795,0.57252 3.72441,1.40903 6.95523,3.73232 10.40854,5.64125 3.33681,2.04934 6.20477,4.73809 9.03444,7.41894 2.94542,3.17329 5.44515,6.68508 7.7638,10.32871 2.39793,4.12491 4.43675,8.44119 6.36078,12.80264 1.9592,5.10144 4.01875,10.16273 5.7617,15.34519 1.7422,5.6545 3.35246,11.34198 4.99387,17.02582 1.77405,6.466 3.34033,12.96977 4.43402,19.58589 0.94684,7.52892 2.09256,15.03148 3.03635,22.56044 0.9309,7.59923 2.23487,15.142664 3.29317,22.72409 1.08233,7.353755 2.3232,14.671527 3.22459,22.052159 1.15967,7.414223 2.20911,14.840789 3.18222,22.28448 0.74596,7.762705 1.94545,15.46873 3.00316,23.192149 1.16131,7.799524 2.40026,15.5892852 3.389,23.4135282 0.90073,6.7285982 1.67319,13.4709038 2.64669,20.1896638 1.34938,7.306728 1.78458,14.732041 2.5114,22.115793 0.63571,7.204007 1.51811,14.391322 2.59556,21.542868 0.84443,5.951115 1.65191,11.906824 2.50951,17.85642 0.87485,5.710047 1.79975,11.411689 2.73387,17.112327 0.88668,6.143602 1.94118,12.244332 3.26375,18.310842 1.46535,6.08652 3.18646,12.12127 5.05588,18.0968 1.87123,5.52198 3.3335,11.16717 5.22192,16.68354 2.10135,5.63773 4.17763,11.32165 6.68786,16.79569 1.99745,4.53886 4.35379,8.8955 7.07491,13.04031 2.51272,4.07058 4.94421,8.18945 7.73221,12.08046 2.28904,3.22398 4.48953,6.51059 6.79753,9.72069 1.65494,1.94884 2.80882,4.29218 4.66956,6.0734 0.29119,0.27876 2.6458,2.11541 2.91164,2.32426 2.88101,2.26915 6.47193,3.12886 9.96385,3.98839 4.29432,0.64764 8.65858,0.64189 12.99209,0.70254 6.90333,0.19267 13.81038,0.13418 20.71528,0.20207 7.8237,0.58329 14.9912,-0.8262 22.5562,-2.50462 6.93353,-1.59478 13.18924,-5.01375 19.31881,-8.51589 20.73767,-11.84395 44.87534,-25.63456 -55.89214,32.18871 -1.02262,0.58681 2.01842,-1.21928 3.02036,-1.84074 2.52613,-1.56686 4.98227,-3.21265 7.41255,-4.92279 4.13101,-3.10027 8.14109,-6.36401 12.05836,-9.73012 4.44581,-3.67718 8.17324,-8.13634 12.07402,-12.36968 3.6785,-3.99635 7.27283,-8.09085 10.74048,-12.27345 3.18871,-3.96258 6.47593,-7.85292 9.99238,-11.5295 2.49672,-2.54114 4.33971,-5.61117 6.4447,-8.46149 0,0 67.15862,-30.23658 67.15862,-30.23658 l 0,0 c -1.3999,3.64527 -3.8553,6.69058 -5.86455,10.0269 -3.16303,4.07517 -7.15781,7.43372 -10.33619,11.51122 -3.49875,4.2956 -7.08906,8.49918 -10.63158,12.7614 -3.99209,4.15474 -7.95986,8.34873 -11.55645,12.85565 -3.90324,3.59581 -7.98034,6.97717 -12.06045,10.36712 -3.38792,2.73062 -6.88026,5.44494 -10.65001,7.6382 -62.96299,36.63226 -43.16658,26.24539 -68.52976,39.47623 -6.61265,3.15421 -13.34251,5.9398 -20.68179,6.87247 -7.71146,1.22511 -15.43332,1.57625 -23.24101,1.32196 -7.14873,0.0848 -14.29853,0.0906 -21.44776,0.0898 -4.91401,-0.17769 -9.87589,-0.40321 -14.54955,-2.09749 -4.19001,-1.55772 -8.10556,-3.48482 -11.47541,-6.5068 -3.30091,-2.95573 -6.14116,-6.30001 -8.70617,-9.91169 -2.26576,-3.25188 -4.36501,-6.61933 -6.50009,-9.95757 -2.75429,-4.0608 -5.35695,-8.22066 -8.0062,-12.35027 -2.70449,-4.53625 -5.17017,-9.26694 -7.24366,-14.11855 -2.47309,-5.71008 -4.54109,-11.57591 -6.88201,-17.33993 -2.03233,-5.54828 -3.67002,-11.21749 -5.34344,-16.88154 -2.00522,-6.1629 -3.45184,-12.47663 -5.17898,-18.71928 -1.47836,-6.12065 -2.83963,-12.2635 -3.67686,-18.50893 -1.08575,-5.71773 -1.85167,-11.49479 -2.76222,-17.24223 -1.04033,-5.99929 -1.70915,-12.05875 -2.31106,-18.115744 -0.94645,-7.287371 -1.8822,-14.578282 -2.52209,-21.900504 -0.7445,-7.221652 -1.23276,-14.476832 -2.45314,-21.639728 -1.23817,-6.824565 -1.95927,-13.713302 -2.8099,-20.593998 -0.61315,-7.782945 -1.79571,-15.496258 -2.88277,-23.223832 -1.40126,-7.7048549 -2.50487,-15.4623609 -3.34613,-23.247813 -0.95957,-7.42741 -1.75563,-14.888738 -3.24097,-22.234898 -1.04193,-7.330014 -1.72327,-14.711043 -3.03759,-22.00565 -1.22532,-7.619948 -2.18732,-15.280406 -3.36636,-22.907673 -0.89061,-7.424246 -2.1919,-14.791528 -3.01998,-22.22361 -1.0428,-6.27958 -2.69456,-12.41639 -4.41743,-18.54031 -1.73723,-5.59439 -2.88691,-11.3509 -4.94703,-16.84958 -1.58505,-5.02004 -3.65806,-9.84998 -5.70778,-14.69454 -1.60764,-4.0757 -3.61839,-7.95745 -6.05723,-11.60262 -1.91428,-3.11904 -3.86307,-6.24701 -6.68507,-8.64851 -2.56489,-2.26469 -5.22858,-4.41494 -8.27314,-6.01394 -2.6386,-1.60136 -5.5583,-3.20468 -8.7339,-3.0049 -2.7272,0.40528 -5.5167,0.20231 -8.2309,0.77117 -2.7893,0.58858 -5.4226,1.72668 -8.249,2.10936 -2.7118,0.96823 -5.4972,1.72789 -8.0166,3.12116 -2.7565,1.3766 -5.7411,2.20722 -8.4576,3.68225 20.6868,-11.87753 41.4311,-23.65558 62.06043,-35.6326 0.47887,-0.27802 -1.07009,0.29828 -1.57841,0.51789 -2.25455,0.97403 -3.82777,2.97381 -5.98255,4.12862 -2.87976,2.84672 -5.78543,5.6721 -8.51698,8.6632 -2.43274,2.7845 -4.63279,5.75337 -6.42949,8.98698 -0.2003,0.54274 -0.4005,1.08549 -0.6007,1.62823 -0.2266,0.45235 -0.4964,0.88553 -0.6798,1.35705 -0.7566,1.94522 -0.5931,4.1379 -1.4959,6.04724 -1.3601,2.85637 -1.9083,6.08277 -2.9988,9.0525 -1.6419,4.10624 -2.4716,8.54447 -4.3141,12.59717 -1.1085,4.87166 -2.5666,9.68734 -3.2484,14.64334 0,0 -66.8141,32.00676 -66.8141,32.00676 z"
               inkscape:connector-curvature="0" />
            <path
               style="fill:#00ff00;fill-opacity:1;stroke:#000000;stroke-width:7.5;stroke-miterlimit:4;stroke-dasharray:none"
               id="path4023"
               d="m -681.89697,-167.74708 c -1.62749,-4.19698 -3.99951,-8.07458 -6.47946,-11.81684 -1.88091,-3.44063 -4.53094,-6.27113 -7.52691,-8.75877 -3.09804,-2.5984 -6.19217,-5.16173 -9.44417,-7.55857 -2.81735,-2.20569 -6.18375,-3.73544 -9.55709,-4.91287 -2.0981,-1.29265 -4.59295,-1.49657 -6.76993,-2.57863 -0.70694,-0.35139 -2.71591,-1.5732 -3.38373,-1.97328 -3.19541,-1.78465 -6.80919,-1.83804 -10.36964,-1.96062 -2.04607,0.87434 -4.39786,0.70031 -6.49092,1.30109 -0.95075,0.2729 -1.82077,0.78199 -2.76416,1.07933 -2.17477,1.12783 -4.59089,1.59172 -6.90027,2.30662 -0.87028,0.2694 -3.20551,1.34136 -4.00635,1.69839 -3.13689,1.38927 -6.17737,2.98299 -9.11479,4.75553 -0.75506,0.45563 -2.98562,1.87701 -2.22103,1.43755 20.15086,-11.58205 40.25527,-23.24472 60.3829,-34.86708 -3.8337,2.18348 -7.49047,4.66126 -11.15665,7.1145 -2.96594,2.64499 -6.49971,4.49083 -9.74866,6.74781 -3.33495,1.89882 -5.4731,4.96945 -7.45397,8.14973 -2.52612,3.31004 -4.35205,7.07687 -6.42432,10.67377 -1.74909,4.09948 -3.26993,8.28091 -4.94575,12.40975 -2.38848,5.38777 -4.5576,10.86878 -6.93483,16.26217 -2.78819,6.52829 -5.55977,13.06381 -8.2945,19.6147 -2.90323,6.63489 -6.06754,13.15844 -8.48899,19.98993 -1.93002,6.20723 -4.44796,12.19831 -6.78446,18.25591 -2.31058,6.50469 -4.79013,12.949721 -7.44782,19.32032 -2.50303,6.916689 -5.26843,13.722902 -8.16116,20.485765 -3.08217,7.544699 -6.43581,14.973061 -9.74909,22.417846 -3.65347,8.201703 -6.9456,16.554978 -10.61444,24.749051 -4.17009,8.645002 -7.87091,17.4969279 -11.31566,26.4520068 -3.53035,9.6740192 -7.55031,19.1588482 -11.18225,28.7930042 -3.41648,9.685263 -7.22852,19.216032 -11.15929,28.701044 -3.74771,8.979572 -7.58279,17.922119 -11.36923,26.885314 -3.69587,9.310558 -8.12256,18.287089 -12.5043,27.285619 -4.35327,9.19062 -9.20009,18.13054 -14.05219,27.06369 -4.26959,8.39917 -9.23519,16.38882 -14.54434,24.16182 -5.07459,6.99409 -10.24528,13.93014 -15.77782,20.57 -2.90047,3.3773 -5.85786,6.72118 -9.13027,9.7481 -18.60742,17.21148 -73.11235,44.05209 -73.54246,44.3016 -10.65023,5.3136 -22.39583,7.76638 -33.98113,10.11236 -6.9635,0.86738 -14.2174,2.52348 -21.2688,2.46988 -3.1743,-0.0241 -6.4159,-0.67284 -9.5304,-1.17728 -9.4306,-2.45784 -18.8329,-4.96558 -28.1169,-7.93439 -6.5256,-2.58309 -12.6069,-6.09284 -18.8217,-9.30771 -6.6152,-3.22387 -3.3737,-1.57428 -9.7285,-4.94124 -6.8766,-4.38049 -13.9962,-8.58302 -19.7163,-14.46181 0,0 62.7448,-38.05706 62.7448,-38.05706 l 0,0 c 4.6454,5.55712 10.8349,9.63272 17.0153,13.29046 9.049,5.00693 18.3375,9.68374 28.2173,12.83794 8.9051,2.80422 17.8201,5.85959 27.1534,6.86055 9.65641,0.51477 19.29416,-0.65217 28.74506,-2.6535 11.52086,-2.68467 22.96739,-5.9091 33.11663,-12.20728 -19.00309,11.04846 -38.0024,22.10342 -57.00926,33.14538 -1.39048,0.8078 2.79355,-1.59515 4.16008,-2.44284 4.95989,-3.07675 9.24509,-6.99576 13.06989,-11.39801 5.70827,-6.42575 11.0627,-13.14643 16.17337,-20.05648 5.63562,-7.44957 10.95407,-15.18395 15.18409,-23.53214 4.97709,-8.74483 9.8574,-17.56723 14.14034,-26.67558 4.3545,-8.93897 9.18961,-17.67298 12.65937,-27.01512 3.97552,-8.8938 7.50986,-17.973386 11.42577,-26.893246 4.18308,-9.302108 7.95577,-18.770877 11.43945,-28.35506 3.37868,-9.697209 7.54286,-19.081967 10.99852,-28.750306 3.20771,-9.082885 6.82596,-18.027675 10.84962,-26.7823572 3.65669,-8.1312687 7.21264,-16.2943258 10.62444,-24.5330598 2.92288,-7.543345 6.51959,-14.8027 9.50962,-22.32107 2.75309,-6.750017 5.84316,-13.375061 8.01471,-20.346672 2.50368,-6.29985 5.18895,-12.528807 7.40107,-18.942091 2.03302,-6.193469 4.79035,-12.074251 6.93482,-18.228857 0.75861,-2.286231 1.38339,-4.619501 2.24654,-6.868341 1.77993,-4.63745 4.22107,-9.04051 6.13681,-13.62005 2.75035,-6.47535 5.42976,-12.97907 8.08257,-19.49444 2.098,-5.31511 4.31932,-10.59386 6.47334,-15.87763 1.57633,-4.13877 3.22965,-8.21675 4.76413,-12.3671 1.19076,-4.34957 3.87454,-7.97662 5.7271,-12.05676 2.38999,-3.32622 4.03467,-7.11988 6.63502,-10.29674 2.97789,-2.66653 6.08791,-5.07308 9.68416,-6.8572 3.513,-3.03639 7.46561,-5.3934 11.23184,-8.09222 23.79935,-13.76299 49.95046,-32.38773 77.20465,-43.00439 3.9218,-1.2769 7.8238,-2.68483 11.84944,-3.58117 3.44444,-0.62711 7.11835,-0.77694 10.56663,-0.14145 4.23278,0.7477 8.27159,1.94614 11.97112,4.20711 3.22074,1.43077 6.59164,2.49827 9.75841,4.06605 3.74643,1.80972 7.43335,3.74799 10.62094,6.46617 3.28036,2.59604 6.38047,5.41539 9.63199,8.04836 3.35977,3.09688 6.18789,6.62139 8.52606,10.55746 2.43132,3.92317 4.51076,8.05655 7.10517,11.88012 0,0 -64.19258,37.02351 -64.19258,37.02351 z"
               inkscape:connector-curvature="0" />
            <rect
               style="fill:#00ff00;fill-opacity:1;stroke:none"
               id="rect4027"
               width="15.556349"
               height="121.62237"
               x="-937.849"
               y="-51.662216"
               transform="matrix(0.99468787,-0.10293706,0.10293706,0.99468787,0,0)" />
            <rect
               style="fill:#00ff00;fill-opacity:1;stroke:none"
               id="rect4027-6"
               width="15.556349"
               height="121.62237"
               x="-891.35669"
               y="-150.47591"
               transform="matrix(0.9901089,-0.14030095,0.14030095,0.9901089,0,0)" />
            <rect
               style="fill:#00ff00;fill-opacity:1;stroke:none"
               id="rect4027-6-8"
               width="10.735384"
               height="78.150002"
               x="-904.02759"
               y="-207.28368"
               transform="matrix(0.92962678,-0.36850244,0.45102024,0.89251372,0,0)" />
            <rect
               style="fill:#00ff00;fill-opacity:1;stroke:none"
               id="rect4027-6-7"
               width="15.556349"
               height="121.62237"
               x="-888.85284"
               y="-121.7681"
               transform="matrix(0.97847861,-0.20634828,0.20634828,0.97847861,0,0)" />
            <rect
               style="fill:#00ff00;fill-opacity:1;stroke:none"
               id="rect4027-6-4"
               width="43.121292"
               height="150.75851"
               x="-931.64923"
               y="-247.37759"
               transform="matrix(0.95385731,-0.30026028,0.20279694,0.97922081,0,0)" />
          </g>
        </g>
        <path
           style="fill:none;stroke:#000000;stroke-width:6.48176527;stroke-linecap:butt;stroke-linejoin:miter;stroke-miterlimit:4;stroke-opacity:1;stroke-dasharray:none"
           d="M 204.17188,-879.03912 C -31.833127,-1061.5307 -31.376201,-1061.1774 -31.376201,-1061.1774"
           id="path4099"
           inkscape:connector-curvature="0" />
      </g>
    </g>
  </g>
</svg>
